{"buffers":[{"uri":"Robotic_arm_final.gltf.bin","byteLength":1486640}],"asset":{"version":"2.0","generator":"gltfpack 0.16"},"bufferViews":[{"buffer":0,"byteOffset":0,"byteLength":586032,"byteStride":12,"target":34962},{"buffer":0,"byteOffset":586032,"byteLength":586032,"byteStride":12,"target":34962},{"buffer":0,"byteOffset":1172064,"byteLength":314574,"target":34963}],"accessors":[{"bufferView":0,"byteOffset":0,"componentType":5126,"count":8091,"type":"VEC3","min":[-0.129446313,-0.114300005,-0.0666749999],"max":[0.215900004,0.114300005,0.0920750052]},{"bufferView":1,"byteOffset":0,"componentType":5126,"count":8091,"type":"VEC3"},{"bufferView":2,"byteOffset":0,"componentType":5123,"count":34242,"type":"SCALAR"},{"bufferView":0,"byteOffset":97092,"componentType":5126,"count":5034,"type":"VEC3","min":[-0.111601599,-0.111720391,0.0834750012],"max":[0.111759998,0.111720391,0.165475011]},{"bufferView":1,"byteOffset":97092,"componentType":5126,"count":5034,"type":"VEC3"},{"bufferView":2,"byteOffset":68484,"componentType":5123,"count":15036,"type":"SCALAR"},{"bufferView":0,"byteOffset":157500,"componentType":5126,"count":3793,"type":"VEC3","min":[-0.0317650884,-0.0381967984,0.130005002],"max":[0.0317349099,0.0400031991,0.492599994]},{"bufferView":1,"byteOffset":157500,"componentType":5126,"count":3793,"type":"VEC3"},{"bufferView":2,"byteOffset":98556,"componentType":5123,"count":11220,"type":"SCALAR"},{"bufferView":0,"byteOffset":203016,"componentType":5126,"count":6316,"type":"VEC3","min":[-0.0312299989,-0.029306801,0.445139974],"max":[0.0367170013,0.0391208008,0.773999989]},{"bufferView":1,"byteOffset":203016,"componentType":5126,"count":6316,"type":"VEC3"},{"bufferView":2,"byteOffset":120996,"componentType":5123,"count":19152,"type":"SCALAR"},{"bufferView":0,"byteOffset":278808,"componentType":5126,"count":3319,"type":"VEC3","min":[-0.0102477316,-0.0221259985,0.770190001],"max":[0.0100022685,0.0271240007,0.824750006]},{"bufferView":1,"byteOffset":278808,"componentType":5126,"count":3319,"type":"VEC3"},{"bufferView":2,"byteOffset":159300,"componentType":5123,"count":11310,"type":"SCALAR"},{"bufferView":0,"byteOffset":318636,"componentType":5126,"count":2217,"type":"VEC3","min":[-0.00999773201,-0.0268959999,0.79974997],"max":[0.0100022694,0.0287039988,0.836750031]},{"bufferView":1,"byteOffset":318636,"componentType":5126,"count":2217,"type":"VEC3"},{"bufferView":2,"byteOffset":181920,"componentType":5123,"count":6867,"type":"SCALAR"},{"bufferView":0,"byteOffset":345240,"componentType":5126,"count":5510,"type":"VEC3","min":[-0.0102477316,-0.0290959999,0.834209979],"max":[0.0828622729,0.021404,0.966809988]},{"bufferView":1,"byteOffset":345240,"componentType":5126,"count":5510,"type":"VEC3"},{"bufferView":2,"byteOffset":195654,"componentType":5123,"count":17706,"type":"SCALAR"},{"bufferView":0,"byteOffset":411360,"componentType":5126,"count":14556,"type":"VEC3","min":[-0.0694681704,-0.0685670078,0.926909983],"max":[0.0694972426,0.0676673353,1.05766761]},{"bufferView":1,"byteOffset":411360,"componentType":5126,"count":14556,"type":"VEC3"},{"bufferView":2,"byteOffset":231066,"componentType":5123,"count":41754,"type":"SCALAR"}],"materials":[{"pbrMetallicRoughness":{"baseColorFactor":[0.53725493,0.53725493,0.53725493,1],"metallicFactor":0,"roughnessFactor":0},"doubleSided":true},{"pbrMetallicRoughness":{"baseColorFactor":[0.960784316,0.960784316,0.964705884,1],"metallicFactor":0,"roughnessFactor":0},"doubleSided":true}],"meshes":[{"primitives":[{"attributes":{"POSITION":0,"NORMAL":1},"mode":4,"indices":2,"material":0}]},{"primitives":[{"attributes":{"POSITION":3,"NORMAL":4},"mode":4,"indices":5,"material":0}]},{"primitives":[{"attributes":{"POSITION":6,"NORMAL":7},"mode":4,"indices":8,"material":1}]},{"primitives":[{"attributes":{"POSITION":9,"NORMAL":10},"mode":4,"indices":11,"material":1}]},{"primitives":[{"attributes":{"POSITION":12,"NORMAL":13},"mode":4,"indices":14,"material":0}]},{"primitives":[{"attributes":{"POSITION":15,"NORMAL":16},"mode":4,"indices":17,"material":0}]},{"primitives":[{"attributes":{"POSITION":18,"NORMAL":19},"mode":4,"indices":20,"material":0}]},{"primitives":[{"attributes":{"POSITION":21,"NORMAL":22},"mode":4,"indices":23,"material":0}]}],"nodes":[{"mesh":0},{"mesh":1},{"mesh":2},{"mesh":3},{"mesh":4},{"mesh":5},{"mesh":6},{"mesh":7},{"name":"base","children":[0]},{"name":"waist","children":[1]},{"name":"shoulder","children":[2]},{"name":"elbow","children":[3]},{"name":"wrist1","children":[4]},{"name":"wrist2","children":[5]},{"name":"wrist3","children":[6]},{"name":"wrist3","children":[7]}],"scenes":[{"nodes":[8,9,10,11,12,13,14,15]}]}